# xmcd
#
# Track frame offsets:
#	150
#	18540
#	38307
#
# Disc length: 806 seconds
#
# Revision: 0
# Processed by: cddbd v1.5.2PL0 Copyright (c) Steve Scherf et al.
# Submitted via: audiograbber 1.83.01
#
DISCID=15032403
DTITLE=Red White and Blues - Shine (Sampler)
DYEAR=2012
DGENRE=Blues
TTITLE0=Stand Up For Rock And Roll
TTITLE1=Rescue Me
TTITLE2=Counts For Nothing
EXTD=
EXTT0=
EXTT1=
EXTT2=
PLAYORDER=
